<?xml version="1.0" standalone="no"?>
<!DOCTYPE svg PUBLIC "-//W3C//DTD SVG 20010904//EN"
 "http://www.w3.org/TR/2001/REC-SVG-20010904/DTD/svg10.dtd">
<svg version="1.0" xmlns="http://www.w3.org/2000/svg"
 width="1000.000000pt" height="1000.000000pt" viewBox="0 0 1000.000000 1000.000000"
 preserveAspectRatio="xMidYMid meet">
<metadata>
Created by potrace 1.14, written by Peter Selinger 2001-2017
</metadata>
<g transform="translate(0.000000,1000.000000) scale(0.100000,-0.100000)"
fill="#000000" stroke="none">
<path d="M1839 9996 c-2 -2 -31 -7 -64 -10 -78 -8 -115 -14 -200 -33 -38 -8
-77 -16 -86 -18 -9 -2 -66 -20 -125 -40 -180 -59 -435 -193 -559 -291 -16 -14
-35 -28 -40 -32 -117 -85 -319 -297 -400 -422 -17 -25 -32 -47 -35 -50 -9 -8
-85 -141 -118 -205 -57 -112 -140 -335 -156 -417 -2 -13 -11 -61 -21 -108 -9
-47 -19 -114 -23 -150 -10 -91 -9 -6369 1 -6455 7 -58 22 -141 52 -276 31
-141 167 -443 267 -592 61 -90 192 -252 246 -304 104 -99 136 -127 218 -189
121 -91 255 -170 397 -234 62 -27 290 -110 302 -109 3 0 31 -5 63 -12 31 -7
64 -13 72 -14 8 -1 49 -8 90 -16 64 -12 553 -14 3265 -14 1755 0 3215 3 3245
8 89 12 204 33 280 52 134 34 347 121 478 197 350 202 624 490 800 843 71 143
143 344 167 470 19 98 27 148 33 210 9 95 9 6364 -1 6440 -13 106 -18 138 -38
225 -64 280 -213 585 -393 805 -330 402 -762 647 -1276 725 -120 18 -242 19
-3281 19 -1736 1 -3158 -1 -3160 -3z"/>
</g>
</svg>
